# This file uses centimeters as units for non-parametric coordinates.

mtllib lead.mtl
g default
v 0.977497 0.053078 -0.000788
v 0.977497 0.054502 -0.000836
v 0.977497 0.056543 -0.001315
v 0.977497 0.058070 -0.002122
v 0.977497 0.059580 -0.003203
v 0.977497 0.060625 -0.004356
v 0.977497 0.061251 -0.006034
v 0.977497 0.060563 -0.007904
v 0.977497 0.059575 -0.009027
v 0.977497 0.058269 -0.009915
v 0.977497 0.056808 -0.010694
v 0.977497 0.054813 -0.011340
v 0.977497 0.053016 -0.011590
v 0.977497 0.051806 -0.011157
v 0.977497 0.050840 -0.009806
v 0.977497 0.050351 -0.008298
v 0.977497 0.050099 -0.006184
v 0.977497 0.050243 -0.004059
v 0.977497 0.050769 -0.002129
v 0.977497 0.051616 -0.001094
v 0.977497 0.055360 -0.006034
v 0.930472 0.046874 -0.024066
v 0.926443 0.052652 -0.024256
v 0.926017 0.059673 -0.022085
v 0.928562 0.064503 -0.018870
v 0.930643 0.068550 -0.015557
v 0.937508 0.070163 -0.011272
v 0.933809 0.073218 -0.005703
v 0.928646 0.072502 0.000043
v 0.925539 0.069544 0.004418
v 0.924354 0.064321 0.008495
v 0.923846 0.058831 0.011529
v 0.926338 0.051552 0.012615
v 0.934660 0.047613 0.010576
v 0.941676 0.044472 0.007871
v 0.932732 0.039982 0.006797
v 0.919597 0.034795 0.002000
v 0.913881 0.032675 -0.006168
v 0.913627 0.033646 -0.014913
v 0.916447 0.036341 -0.020653
v 0.922835 0.041417 -0.024497
v 0.925412 0.058569 -0.022587
vt 0.648603 0.107966
vt 0.626409 0.064408
vt 0.591842 0.029841
vt 0.548284 0.007647
vt 0.500000 -0.000000
vt 0.451716 0.007647
vt 0.408159 0.029841
vt 0.373591 0.064409
vt 0.351397 0.107966
vt 0.343750 0.156250
vt 0.351397 0.204534
vt 0.373591 0.248091
vt 0.408159 0.282659
vt 0.451716 0.304853
vt 0.500000 0.312500
vt 0.548284 0.304853
vt 0.591841 0.282659
vt 0.626409 0.248091
vt 0.648603 0.204534
vt 0.656250 0.156250
vt 0.375000 0.312500
vt 0.387500 0.312500
vt 0.400000 0.312500
vt 0.412500 0.312500
vt 0.425000 0.312500
vt 0.437500 0.312500
vt 0.450000 0.312500
vt 0.462500 0.312500
vt 0.475000 0.312500
vt 0.487500 0.312500
vt 0.500000 0.312500
vt 0.512500 0.312500
vt 0.525000 0.312500
vt 0.537500 0.312500
vt 0.550000 0.312500
vt 0.562500 0.312500
vt 0.575000 0.312500
vt 0.587500 0.312500
vt 0.600000 0.312500
vt 0.612500 0.312500
vt 0.625000 0.312500
vt 0.500000 0.150000
vt 0.525000 0.313363
vt 0.512500 0.313436
vt 0.500000 0.313444
vt 0.487500 0.313397
vt 0.475000 0.313359
vt 0.462500 0.313233
vt 0.450000 0.313301
vt 0.437500 0.313396
vt 0.425000 0.313453
vt 0.412500 0.313475
vt 0.400000 0.313484
vt 0.387500 0.313438
vt 0.625000 0.313286
vt 0.375000 0.313286
vt 0.612500 0.313157
vt 0.600000 0.313321
vt 0.587500 0.313562
vt 0.575000 0.313667
vt 0.562500 0.313672
vt 0.550000 0.313620
vt 0.537500 0.313503
vt 0.502032 0.313455
vn 0.264838 -0.077094 0.961206
vn 0.243174 0.151493 0.958080
vn 0.256350 0.000614 0.966584
vn 0.238727 0.196449 0.951008
vn 0.232980 0.332250 0.913964
vn 0.232708 0.338642 0.911685
vn 0.225756 0.519079 0.824373
vn 0.225821 0.508929 0.830660
vn 0.230404 0.642303 0.731000
vn 0.229035 0.620824 0.749747
vn 0.247269 0.834902 0.491728
vn 0.242234 0.785288 0.569777
vn 0.263782 0.963994 -0.033694
vn 0.262032 0.952313 0.156333
vn 0.242857 0.843651 -0.478826
vn 0.242134 0.835626 -0.493052
vn 0.224953 0.639478 -0.735163
vn 0.221070 0.587988 -0.778073
vn 0.217226 0.505916 -0.834783
vn 0.216962 0.491277 -0.843549
vn 0.220014 0.378050 -0.899262
vn 0.218563 0.414113 -0.883595
vn 0.229570 0.229658 -0.945809
vn 0.228658 0.238701 -0.943789
vn 0.221976 0.300257 -0.927670
vn 0.261674 -0.045136 -0.964100
vn 0.266923 -0.095813 -0.958943
vn 0.295414 -0.606574 -0.738105
vn 0.288798 -0.740857 -0.606404
vn 0.280585 -0.854742 -0.436678
vn 0.276386 -0.887035 -0.369838
vn 0.266645 -0.945461 -0.187095
vn 0.266364 -0.946721 -0.181024
vn 0.264117 -0.964318 -0.018235
vn 0.263836 -0.963282 -0.049778
vn 0.269674 -0.950716 0.153017
vn 0.265549 -0.959867 0.090218
vn 0.288371 -0.875159 0.388509
vn 0.276819 -0.920482 0.275834
vn 0.301495 -0.472534 0.828138
vn 0.302525 -0.494259 0.814977
vn 1.000000 -0.000000 -0.000014
vn 1.000000 -0.000000 0.000050
vn 1.000000 -0.000000 -0.000002
vn 1.000000 -0.000000 0.000000
vn 1.000000 -0.000000 -0.000047
vn 1.000000 -0.000000 -0.000039
vn 1.000000 -0.000000 0.000000
vn 1.000000 -0.000000 0.000000
vn 1.000000 -0.000000 0.000000
vn 1.000000 -0.000000 0.000000
vn 1.000000 -0.000000 -0.000012
vn 1.000000 -0.000000 -0.000010
vn 1.000000 -0.000000 0.000024
vn 1.000000 -0.000000 0.000018
vn 1.000000 -0.000000 0.000000
vn 1.000000 -0.000000 0.000000
vn 1.000000 -0.000000 0.000000
vn 1.000000 -0.000000 0.000000
vn 1.000000 -0.000000 0.000000
vn 1.000000 -0.000000 0.000000
vn 1.000000 -0.000000 0.000043
s 1
g pCylinder1
usemtl initialShadingGroup
f 1/21/1 2/22/2 34/56/3
f 34/56/3 2/22/2 33/54/4
f 2/22/2 3/23/5 33/54/4
f 33/54/4 3/23/5 32/53/6
f 4/24/7 31/52/8 3/23/5
f 3/23/5 31/52/8 32/53/6
f 5/25/9 30/51/10 4/24/7
f 4/24/7 30/51/10 31/52/8
f 6/26/11 29/50/12 5/25/9
f 5/25/9 29/50/12 30/51/10
f 7/27/13 28/49/14 6/26/11
f 6/26/11 28/49/14 29/50/12
f 8/28/15 27/48/16 7/27/13
f 7/27/13 27/48/16 28/49/14
f 8/28/15 9/29/17 27/48/16
f 27/48/16 9/29/17 26/47/18
f 9/29/17 10/30/19 26/47/18
f 26/47/18 10/30/19 25/46/20
f 10/30/19 11/31/21 25/46/20
f 25/46/20 11/31/21 24/45/22
f 11/31/21 12/32/23 24/45/22
f 23/44/24 42/64/25 12/32/23
f 12/32/23 42/64/25 24/45/22
f 13/33/26 22/43/27 12/32/23
f 12/32/23 22/43/27 23/44/24
f 13/33/26 14/34/28 22/43/27
f 22/43/27 14/34/28 41/63/29
f 14/34/28 15/35/30 41/63/29
f 41/63/29 15/35/30 40/62/31
f 15/35/30 16/36/32 40/62/31
f 40/62/31 16/36/32 39/61/33
f 17/37/34 38/60/35 16/36/32
f 16/36/32 38/60/35 39/61/33
f 18/38/36 37/59/37 17/37/34
f 17/37/34 37/59/37 38/60/35
f 19/39/38 36/58/39 18/38/36
f 18/38/36 36/58/39 37/59/37
f 20/40/40 35/57/41 19/39/38
f 19/39/38 35/57/41 36/58/39
f 20/40/40 1/41/1 35/57/41
f 35/57/41 1/41/1 34/55/3
s 12
f 2/2/42 1/1/43 21/42/44
f 3/3/45 2/2/42 21/42/44
f 4/4/46 3/3/45 21/42/44
f 5/5/47 4/4/46 21/42/44
f 6/6/48 5/5/47 21/42/44
f 7/7/49 6/6/48 21/42/44
f 8/8/50 7/7/49 21/42/44
f 9/9/51 8/8/50 21/42/44
f 10/10/52 9/9/51 21/42/44
f 11/11/53 10/10/52 21/42/44
f 12/12/54 11/11/53 21/42/44
f 13/13/55 12/12/54 21/42/44
f 14/14/56 13/13/55 21/42/44
f 15/15/57 14/14/56 21/42/44
f 16/16/58 15/15/57 21/42/44
f 17/17/59 16/16/58 21/42/44
f 18/18/60 17/17/59 21/42/44
f 19/19/61 18/18/60 21/42/44
f 20/20/62 19/19/61 21/42/44
f 1/1/43 20/20/62 21/42/44
