# This file uses centimeters as units for non-parametric coordinates.

mtllib sharpened.mtl
g default
v 0.930472 0.046874 -0.024066
v 0.926443 0.052652 -0.024256
v 0.926017 0.059673 -0.022085
v 0.928562 0.064503 -0.018870
v 0.930643 0.068550 -0.015557
v 0.937508 0.070163 -0.011272
v 0.933809 0.073218 -0.005703
v 0.928646 0.072502 0.000043
v 0.925539 0.069544 0.004418
v 0.924354 0.064321 0.008495
v 0.923846 0.058831 0.011529
v 0.926338 0.051552 0.012615
v 0.934660 0.047613 0.010576
v 0.941676 0.044472 0.007871
v 0.932732 0.039982 0.006797
v 0.919597 0.034795 0.002000
v 0.913881 0.032675 -0.006168
v 0.913627 0.033646 -0.014913
v 0.916447 0.036341 -0.020653
v 0.922835 0.041417 -0.024497
v 0.925412 0.058569 -0.022587
v 0.815877 0.099920 0.010197
v 0.811806 0.091357 0.021101
v 0.815942 0.077074 0.030155
v 0.816779 0.063397 0.037162
v 0.814150 0.045083 0.042114
v 0.812549 0.032033 0.042973
v 0.812256 0.018663 0.040263
v 0.813496 0.011244 0.030577
v 0.814933 0.006865 0.012954
v 0.812506 0.004906 -0.006143
v 0.810880 0.006775 -0.025555
v 0.815818 0.012441 -0.038531
v 0.828560 0.023499 -0.047503
v 0.819810 0.032418 -0.053427
v 0.824467 0.048333 -0.050058
v 0.819474 0.065602 -0.045660
v 0.816567 0.078773 -0.039369
v 0.813559 0.090978 -0.031876
v 0.818204 0.098806 -0.021321
v 0.817224 0.105153 -0.004817
vt 0.525000 0.313363
vt 0.512500 0.313436
vt 0.500000 0.313444
vt 0.487500 0.313397
vt 0.475000 0.313359
vt 0.462500 0.313233
vt 0.450000 0.313301
vt 0.437500 0.313396
vt 0.425000 0.313453
vt 0.412500 0.313475
vt 0.400000 0.313484
vt 0.387500 0.313438
vt 0.625000 0.313286
vt 0.375000 0.313286
vt 0.612500 0.313157
vt 0.600000 0.313321
vt 0.587500 0.313562
vt 0.575000 0.313667
vt 0.562500 0.313672
vt 0.550000 0.313620
vt 0.537500 0.313503
vt 0.502032 0.313455
vt 0.437500 0.315464
vt 0.425000 0.315539
vt 0.412500 0.315463
vt 0.400000 0.315448
vt 0.387500 0.315496
vt 0.625000 0.315525
vt 0.375000 0.315525
vt 0.612500 0.315531
vt 0.600000 0.315508
vt 0.587500 0.315482
vt 0.575000 0.315526
vt 0.562500 0.315556
vt 0.550000 0.315465
vt 0.537500 0.315232
vt 0.525000 0.315392
vt 0.512500 0.315307
vt 0.500000 0.315398
vt 0.487500 0.315452
vt 0.475000 0.315507
vt 0.462500 0.315422
vt 0.450000 0.315440
vn 0.231863 0.205574 -0.950778
vn 0.254609 0.014858 -0.966930
vn 0.230763 0.217313 -0.948432
vn 0.259870 -0.028958 -0.965209
vn 0.217064 0.444032 -0.869321
vn 0.221994 0.300304 -0.927651
vn 0.219740 0.385796 -0.896033
vn 0.217327 0.511762 -0.831185
vn 0.217322 0.511107 -0.831589
vn 0.227009 0.672344 -0.704571
vn 0.225035 0.640529 -0.734222
vn 0.244422 0.862759 -0.442612
vn 0.242631 0.840847 -0.483846
vn 0.259167 0.950825 -0.169599
vn 0.264130 0.964464 -0.006665
vn 0.249622 0.866794 0.431690
vn 0.246483 0.826101 0.506758
vn 0.231057 0.653494 0.720804
vn 0.230387 0.641812 0.731436
vn 0.225765 0.518432 0.824778
vn 0.225746 0.521004 0.823161
vn 0.232938 0.333254 0.913609
vn 0.233375 0.322482 0.917355
vn 0.246505 0.113796 0.962437
vn 0.245014 0.131183 0.960603
vn 0.272079 -0.159066 0.949037
vn 0.267513 -0.104994 0.957817
vn 0.299514 -0.438277 0.847469
vn 0.301613 -0.474506 0.826966
vn 0.297111 -0.794157 0.530132
vn 0.292048 -0.851699 0.435105
vn 0.272278 -0.940357 0.203944
vn 0.270215 -0.949077 0.161981
vn 0.264192 -0.964461 -0.004196
vn 0.264050 -0.964028 -0.030455
vn 0.267202 -0.942940 -0.198662
vn 0.266612 -0.945593 -0.186471
vn 0.282354 -0.833257 -0.475353
vn 0.277040 -0.882940 -0.379032
vn 0.293426 -0.489553 -0.821121
vn 0.295482 -0.597191 -0.745690
s 1
g pCylinder1
usemtl initialShadingGroup
f 2/2/1 1/1/2 36/38/3
f 36/38/3 1/1/2 35/37/4
f 3/3/5 21/22/6 37/39/7
f 37/39/7 21/22/6 36/38/3
f 21/22/6 2/2/1 36/38/3
f 3/3/5 37/39/7 4/4/8
f 4/4/8 37/39/7 38/40/9
f 4/4/8 38/40/9 5/5/10
f 5/5/10 38/40/9 39/41/11
f 6/6/12 5/5/10 40/42/13
f 40/42/13 5/5/10 39/41/11
f 6/6/12 40/42/13 7/7/14
f 7/7/14 40/42/13 41/43/15
f 8/8/16 22/23/17 9/9/18
f 9/9/18 22/23/17 23/24/19
f 10/10/20 9/9/18 24/25/21
f 24/25/21 9/9/18 23/24/19
f 10/10/20 24/25/21 11/11/22
f 11/11/22 24/25/21 25/26/23
f 11/11/22 25/26/23 12/12/24
f 12/12/24 25/26/23 26/27/25
f 13/14/26 12/12/24 27/29/27
f 27/29/27 12/12/24 26/27/25
f 14/15/28 13/13/26 28/30/29
f 28/30/29 13/13/26 27/28/27
f 14/15/28 28/30/29 15/16/30
f 15/16/30 28/30/29 29/31/31
f 15/16/30 29/31/31 16/17/32
f 16/17/32 29/31/31 30/32/33
f 16/17/32 30/32/33 17/18/34
f 17/18/34 30/32/33 31/33/35
f 17/18/34 31/33/35 18/19/36
f 18/19/36 31/33/35 32/34/37
f 19/20/38 18/19/36 33/35/39
f 33/35/39 18/19/36 32/34/37
f 20/21/40 19/20/38 34/36/41
f 34/36/41 19/20/38 33/35/39
f 20/21/40 34/36/41 1/1/2
f 1/1/2 34/36/41 35/37/4
f 7/7/14 41/43/15 8/8/16
f 8/8/16 41/43/15 22/23/17
